<!--?xml version="1.0" standalone="no"?-->
              <svg id="sw-js-blob-svg" viewBox="0 0 100 100" xmlns="http://www.w3.org/2000/svg" version="1.1">
                    <defs> 
                        <linearGradient id="sw-gradient" x1="0" x2="1" y1="1" y2="0">
                            <stop id="stop1" stop-color="rgba(248, 117, 55, 1)" offset="0%"></stop>
                            <stop id="stop2" stop-color="rgba(251, 168, 31, 1)" offset="100%"></stop>
                        </linearGradient>
                    </defs>
                <path fill="url(#sw-gradient)" d="M9.3,-14C13.4,-7.7,19,-6,22.1,-1.9C25.3,2.3,26.1,8.9,24.5,16.5C23,24.2,19,32.8,13.9,31.9C8.8,31,2.6,20.5,-1.1,14.3C-4.7,8,-5.8,6,-13.1,2.9C-20.4,-0.1,-33.9,-4.2,-35.7,-8.4C-37.4,-12.6,-27.5,-16.8,-19.7,-22.4C-11.8,-28.1,-5.9,-35.1,-1.6,-33.1C2.6,-31.2,5.3,-20.3,9.3,-14Z" width="100%" height="100%" transform="translate(50 50)" stroke-width="0" style="transition: 0.3s;" stroke="url(#sw-gradient)"></path>
              </svg>